<mxfile host="app.diagrams.net" modified="2024-03-16T05:13:06.174Z" agent="Mozilla/5.0 (Windows NT 10.0; Win64; x64) AppleWebKit/537.36 (KHTML, like Gecko) Chrome/122.0.0.0 Safari/537.36" etag="nM8dV6X8UyhH-G0Q5u4O" version="24.0.7" type="device">
  <diagram name="Page-1" id="gmLu2JgrGg0QX1WwN-sr">
    <mxGraphModel dx="2625" dy="1393" grid="1" gridSize="10" guides="1" tooltips="1" connect="1" arrows="1" fold="1" page="1" pageScale="1" pageWidth="1100" pageHeight="850" math="0" shadow="0">
      <root>
        <mxCell id="0" />
        <mxCell id="1" parent="0" />
        <mxCell id="Vo5YTbIJ16WxDbDKf9QX-1" value="Train Scheduling" style="rounded=0;whiteSpace=wrap;html=1;" vertex="1" parent="1">
          <mxGeometry x="1040" y="80" width="120" height="60" as="geometry" />
        </mxCell>
        <mxCell id="Vo5YTbIJ16WxDbDKf9QX-2" value="Staff Menu" style="rounded=0;whiteSpace=wrap;html=1;" vertex="1" parent="1">
          <mxGeometry x="637.5" y="250" width="120" height="60" as="geometry" />
        </mxCell>
        <mxCell id="Vo5YTbIJ16WxDbDKf9QX-3" value="Display Screen" style="rounded=0;whiteSpace=wrap;html=1;" vertex="1" parent="1">
          <mxGeometry x="1475" y="250" width="120" height="60" as="geometry" />
        </mxCell>
        <mxCell id="Vo5YTbIJ16WxDbDKf9QX-4" value="Train ID" style="rounded=0;whiteSpace=wrap;html=1;" vertex="1" parent="1">
          <mxGeometry x="310" y="470" width="120" height="60" as="geometry" />
        </mxCell>
        <mxCell id="Vo5YTbIJ16WxDbDKf9QX-5" value="Departure Station&lt;div&gt;&amp;amp; Time&lt;/div&gt;" style="rounded=0;whiteSpace=wrap;html=1;" vertex="1" parent="1">
          <mxGeometry x="470" y="470" width="120" height="60" as="geometry" />
        </mxCell>
        <mxCell id="Vo5YTbIJ16WxDbDKf9QX-6" value="Arrival Station&lt;div&gt;&amp;amp; Estimated Time&lt;/div&gt;" style="rounded=0;whiteSpace=wrap;html=1;" vertex="1" parent="1">
          <mxGeometry x="640" y="470" width="120" height="60" as="geometry" />
        </mxCell>
        <mxCell id="Vo5YTbIJ16WxDbDKf9QX-7" value="Ticket Price" style="rounded=0;whiteSpace=wrap;html=1;" vertex="1" parent="1">
          <mxGeometry x="800" y="470" width="120" height="60" as="geometry" />
        </mxCell>
        <mxCell id="Vo5YTbIJ16WxDbDKf9QX-8" value="Available Seats" style="rounded=0;whiteSpace=wrap;html=1;" vertex="1" parent="1">
          <mxGeometry x="960" y="470" width="120" height="60" as="geometry" />
        </mxCell>
        <mxCell id="Vo5YTbIJ16WxDbDKf9QX-9" value="Enter available trains for passengers to select" style="rounded=0;whiteSpace=wrap;html=1;" vertex="1" parent="1">
          <mxGeometry x="310" y="575" width="120" height="70" as="geometry" />
        </mxCell>
        <mxCell id="Vo5YTbIJ16WxDbDKf9QX-10" value="Enter trains&#39; departure station" style="rounded=0;whiteSpace=wrap;html=1;" vertex="1" parent="1">
          <mxGeometry x="480" y="595" width="100" height="40" as="geometry" />
        </mxCell>
        <mxCell id="Vo5YTbIJ16WxDbDKf9QX-11" value="Enter trains&#39; departure&lt;div&gt;time&lt;/div&gt;" style="rounded=0;whiteSpace=wrap;html=1;" vertex="1" parent="1">
          <mxGeometry x="475" y="674" width="110" height="51" as="geometry" />
        </mxCell>
        <mxCell id="Vo5YTbIJ16WxDbDKf9QX-12" value="Enter trains&#39; arrival station" style="rounded=0;whiteSpace=wrap;html=1;" vertex="1" parent="1">
          <mxGeometry x="650" y="595" width="100" height="40" as="geometry" />
        </mxCell>
        <mxCell id="Vo5YTbIJ16WxDbDKf9QX-13" value="Enter trains&#39; estimated arrival time" style="rounded=0;whiteSpace=wrap;html=1;" vertex="1" parent="1">
          <mxGeometry x="645" y="674" width="110" height="50" as="geometry" />
        </mxCell>
        <mxCell id="Vo5YTbIJ16WxDbDKf9QX-14" value="Enter trains&#39; ticket price for passengers to choose" style="rounded=0;whiteSpace=wrap;html=1;" vertex="1" parent="1">
          <mxGeometry x="800" y="585" width="120" height="70" as="geometry" />
        </mxCell>
        <mxCell id="Vo5YTbIJ16WxDbDKf9QX-15" value="Enter trains&#39; available seats for passengers to choose" style="rounded=0;whiteSpace=wrap;html=1;" vertex="1" parent="1">
          <mxGeometry x="955" y="585" width="130" height="70" as="geometry" />
        </mxCell>
        <mxCell id="Vo5YTbIJ16WxDbDKf9QX-16" value="Train ID" style="rounded=0;whiteSpace=wrap;html=1;" vertex="1" parent="1">
          <mxGeometry x="1320" y="390" width="120" height="60" as="geometry" />
        </mxCell>
        <mxCell id="Vo5YTbIJ16WxDbDKf9QX-17" value="Departure Station&lt;div&gt;&amp;amp; Time&lt;/div&gt;" style="rounded=0;whiteSpace=wrap;html=1;" vertex="1" parent="1">
          <mxGeometry x="1480" y="390" width="120" height="60" as="geometry" />
        </mxCell>
        <mxCell id="Vo5YTbIJ16WxDbDKf9QX-18" value="Arrival Station&lt;div&gt;&amp;amp; Estimated Time&lt;/div&gt;" style="rounded=0;whiteSpace=wrap;html=1;" vertex="1" parent="1">
          <mxGeometry x="1650" y="390" width="120" height="55" as="geometry" />
        </mxCell>
        <mxCell id="Vo5YTbIJ16WxDbDKf9QX-19" value="Show all trains&amp;nbsp;" style="rounded=0;whiteSpace=wrap;html=1;" vertex="1" parent="1">
          <mxGeometry x="1320" y="495" width="120" height="70" as="geometry" />
        </mxCell>
        <mxCell id="Vo5YTbIJ16WxDbDKf9QX-20" value="Show train departure station" style="rounded=0;whiteSpace=wrap;html=1;" vertex="1" parent="1">
          <mxGeometry x="1490" y="515" width="100" height="40" as="geometry" />
        </mxCell>
        <mxCell id="Vo5YTbIJ16WxDbDKf9QX-21" value="Show train departure&lt;div&gt;time&lt;/div&gt;" style="rounded=0;whiteSpace=wrap;html=1;" vertex="1" parent="1">
          <mxGeometry x="1485" y="594" width="110" height="51" as="geometry" />
        </mxCell>
        <mxCell id="Vo5YTbIJ16WxDbDKf9QX-22" value="Show train arrival station" style="rounded=0;whiteSpace=wrap;html=1;" vertex="1" parent="1">
          <mxGeometry x="1660" y="515" width="100" height="40" as="geometry" />
        </mxCell>
        <mxCell id="Vo5YTbIJ16WxDbDKf9QX-23" value="Show train estimated arrival time" style="rounded=0;whiteSpace=wrap;html=1;" vertex="1" parent="1">
          <mxGeometry x="1655" y="594" width="110" height="50" as="geometry" />
        </mxCell>
        <mxCell id="Vo5YTbIJ16WxDbDKf9QX-24" value="" style="endArrow=none;html=1;rounded=0;exitX=0.5;exitY=0;exitDx=0;exitDy=0;" edge="1" parent="1" source="Vo5YTbIJ16WxDbDKf9QX-3">
          <mxGeometry width="50" height="50" relative="1" as="geometry">
            <mxPoint x="1405" y="210" as="sourcePoint" />
            <mxPoint x="1100" y="200" as="targetPoint" />
            <Array as="points">
              <mxPoint x="1535" y="200" />
            </Array>
          </mxGeometry>
        </mxCell>
        <mxCell id="Vo5YTbIJ16WxDbDKf9QX-25" value="" style="endArrow=none;html=1;rounded=0;entryX=0.5;entryY=1;entryDx=0;entryDy=0;" edge="1" parent="1">
          <mxGeometry width="50" height="50" relative="1" as="geometry">
            <mxPoint x="699" y="370" as="sourcePoint" />
            <mxPoint x="699.09" y="310" as="targetPoint" />
          </mxGeometry>
        </mxCell>
        <mxCell id="Vo5YTbIJ16WxDbDKf9QX-26" value="" style="endArrow=none;html=1;rounded=0;entryX=0.5;entryY=1;entryDx=0;entryDy=0;exitX=0.5;exitY=0;exitDx=0;exitDy=0;" edge="1" parent="1" source="Vo5YTbIJ16WxDbDKf9QX-15">
          <mxGeometry width="50" height="50" relative="1" as="geometry">
            <mxPoint x="1020.23" y="610" as="sourcePoint" />
            <mxPoint x="1019.23" y="530" as="targetPoint" />
          </mxGeometry>
        </mxCell>
        <mxCell id="Vo5YTbIJ16WxDbDKf9QX-27" value="" style="endArrow=none;html=1;rounded=0;entryX=0.5;entryY=1;entryDx=0;entryDy=0;exitX=0.5;exitY=0;exitDx=0;exitDy=0;" edge="1" parent="1">
          <mxGeometry width="50" height="50" relative="1" as="geometry">
            <mxPoint x="860.24" y="585" as="sourcePoint" />
            <mxPoint x="859.47" y="530" as="targetPoint" />
          </mxGeometry>
        </mxCell>
        <mxCell id="Vo5YTbIJ16WxDbDKf9QX-28" value="" style="endArrow=none;html=1;rounded=0;entryX=0.5;entryY=1;entryDx=0;entryDy=0;exitX=0.5;exitY=0;exitDx=0;exitDy=0;" edge="1" parent="1" target="Vo5YTbIJ16WxDbDKf9QX-6">
          <mxGeometry width="50" height="50" relative="1" as="geometry">
            <mxPoint x="700.24" y="595" as="sourcePoint" />
            <mxPoint x="699.47" y="540" as="targetPoint" />
          </mxGeometry>
        </mxCell>
        <mxCell id="Vo5YTbIJ16WxDbDKf9QX-29" value="" style="endArrow=none;html=1;rounded=0;entryX=0.5;entryY=1;entryDx=0;entryDy=0;exitX=0.5;exitY=0;exitDx=0;exitDy=0;" edge="1" parent="1" source="Vo5YTbIJ16WxDbDKf9QX-10">
          <mxGeometry width="50" height="50" relative="1" as="geometry">
            <mxPoint x="530.24" y="585" as="sourcePoint" />
            <mxPoint x="529.47" y="530" as="targetPoint" />
          </mxGeometry>
        </mxCell>
        <mxCell id="Vo5YTbIJ16WxDbDKf9QX-30" value="" style="endArrow=none;html=1;rounded=0;entryX=0.5;entryY=1;entryDx=0;entryDy=0;exitX=0.5;exitY=0;exitDx=0;exitDy=0;" edge="1" parent="1" source="Vo5YTbIJ16WxDbDKf9QX-9">
          <mxGeometry width="50" height="50" relative="1" as="geometry">
            <mxPoint x="369" y="570" as="sourcePoint" />
            <mxPoint x="369.47" y="530" as="targetPoint" />
          </mxGeometry>
        </mxCell>
        <mxCell id="Vo5YTbIJ16WxDbDKf9QX-31" value="" style="endArrow=none;html=1;rounded=0;entryX=0.5;entryY=1;entryDx=0;entryDy=0;exitX=0.5;exitY=0;exitDx=0;exitDy=0;" edge="1" parent="1" source="Vo5YTbIJ16WxDbDKf9QX-11">
          <mxGeometry width="50" height="50" relative="1" as="geometry">
            <mxPoint x="529" y="670" as="sourcePoint" />
            <mxPoint x="529.47" y="635" as="targetPoint" />
          </mxGeometry>
        </mxCell>
        <mxCell id="Vo5YTbIJ16WxDbDKf9QX-32" value="" style="endArrow=none;html=1;rounded=0;entryX=0.5;entryY=1;entryDx=0;entryDy=0;exitX=0.5;exitY=0;exitDx=0;exitDy=0;" edge="1" parent="1" source="Vo5YTbIJ16WxDbDKf9QX-13" target="Vo5YTbIJ16WxDbDKf9QX-12">
          <mxGeometry width="50" height="50" relative="1" as="geometry">
            <mxPoint x="700" y="670" as="sourcePoint" />
            <mxPoint x="699.94" y="655" as="targetPoint" />
          </mxGeometry>
        </mxCell>
        <mxCell id="Vo5YTbIJ16WxDbDKf9QX-33" value="" style="endArrow=none;html=1;rounded=0;exitX=0.5;exitY=0;exitDx=0;exitDy=0;" edge="1" parent="1">
          <mxGeometry width="50" height="50" relative="1" as="geometry">
            <mxPoint x="1534.5" y="390" as="sourcePoint" />
            <mxPoint x="1534.5" y="310" as="targetPoint" />
          </mxGeometry>
        </mxCell>
        <mxCell id="Vo5YTbIJ16WxDbDKf9QX-34" value="" style="endArrow=none;html=1;rounded=0;entryX=0.5;entryY=1;entryDx=0;entryDy=0;exitX=0.5;exitY=0;exitDx=0;exitDy=0;" edge="1" parent="1" source="Vo5YTbIJ16WxDbDKf9QX-19" target="Vo5YTbIJ16WxDbDKf9QX-16">
          <mxGeometry width="50" height="50" relative="1" as="geometry">
            <mxPoint x="1210" y="595" as="sourcePoint" />
            <mxPoint x="1209.23" y="540" as="targetPoint" />
          </mxGeometry>
        </mxCell>
        <mxCell id="Vo5YTbIJ16WxDbDKf9QX-35" value="" style="endArrow=none;html=1;rounded=0;entryX=0.5;entryY=1;entryDx=0;entryDy=0;" edge="1" parent="1" source="Vo5YTbIJ16WxDbDKf9QX-20">
          <mxGeometry width="50" height="50" relative="1" as="geometry">
            <mxPoint x="1540" y="510" as="sourcePoint" />
            <mxPoint x="1539.6399999999999" y="450" as="targetPoint" />
          </mxGeometry>
        </mxCell>
        <mxCell id="Vo5YTbIJ16WxDbDKf9QX-36" value="" style="endArrow=none;html=1;rounded=0;entryX=0.5;entryY=1;entryDx=0;entryDy=0;exitX=0.5;exitY=0;exitDx=0;exitDy=0;" edge="1" parent="1" source="Vo5YTbIJ16WxDbDKf9QX-22">
          <mxGeometry width="50" height="50" relative="1" as="geometry">
            <mxPoint x="1710" y="510" as="sourcePoint" />
            <mxPoint x="1709.6399999999999" y="445" as="targetPoint" />
          </mxGeometry>
        </mxCell>
        <mxCell id="Vo5YTbIJ16WxDbDKf9QX-37" value="" style="endArrow=none;html=1;rounded=0;entryX=0.5;entryY=1;entryDx=0;entryDy=0;exitX=0.5;exitY=0;exitDx=0;exitDy=0;" edge="1" parent="1" source="Vo5YTbIJ16WxDbDKf9QX-23" target="Vo5YTbIJ16WxDbDKf9QX-22">
          <mxGeometry width="50" height="50" relative="1" as="geometry">
            <mxPoint x="1580" y="555" as="sourcePoint" />
            <mxPoint x="1579.6399999999999" y="490" as="targetPoint" />
          </mxGeometry>
        </mxCell>
        <mxCell id="Vo5YTbIJ16WxDbDKf9QX-38" value="" style="endArrow=none;html=1;rounded=0;entryX=0.5;entryY=1;entryDx=0;entryDy=0;exitX=0.5;exitY=0;exitDx=0;exitDy=0;" edge="1" parent="1" source="Vo5YTbIJ16WxDbDKf9QX-21" target="Vo5YTbIJ16WxDbDKf9QX-20">
          <mxGeometry width="50" height="50" relative="1" as="geometry">
            <mxPoint x="1590" y="565" as="sourcePoint" />
            <mxPoint x="1589.6399999999999" y="500" as="targetPoint" />
          </mxGeometry>
        </mxCell>
        <mxCell id="Vo5YTbIJ16WxDbDKf9QX-39" value="Enter Staff ID&lt;div&gt;&amp;amp; Password&lt;/div&gt;" style="rounded=0;whiteSpace=wrap;html=1;" vertex="1" parent="1">
          <mxGeometry x="640" y="370" width="120" height="60" as="geometry" />
        </mxCell>
        <mxCell id="Vo5YTbIJ16WxDbDKf9QX-40" value="" style="endArrow=none;html=1;rounded=0;entryX=0.5;entryY=1;entryDx=0;entryDy=0;exitX=0.5;exitY=0;exitDx=0;exitDy=0;" edge="1" parent="1" source="Vo5YTbIJ16WxDbDKf9QX-4" target="Vo5YTbIJ16WxDbDKf9QX-39">
          <mxGeometry width="50" height="50" relative="1" as="geometry">
            <mxPoint x="709" y="380" as="sourcePoint" />
            <mxPoint x="709.09" y="320" as="targetPoint" />
            <Array as="points">
              <mxPoint x="370" y="450" />
              <mxPoint x="700" y="450" />
            </Array>
          </mxGeometry>
        </mxCell>
        <mxCell id="Vo5YTbIJ16WxDbDKf9QX-41" value="" style="endArrow=none;html=1;rounded=0;exitX=0.5;exitY=0;exitDx=0;exitDy=0;" edge="1" parent="1" source="Vo5YTbIJ16WxDbDKf9QX-5">
          <mxGeometry width="50" height="50" relative="1" as="geometry">
            <mxPoint x="719" y="390" as="sourcePoint" />
            <mxPoint x="530" y="450" as="targetPoint" />
          </mxGeometry>
        </mxCell>
        <mxCell id="Vo5YTbIJ16WxDbDKf9QX-42" value="" style="endArrow=none;html=1;rounded=0;exitX=0.5;exitY=0;exitDx=0;exitDy=0;" edge="1" parent="1" source="Vo5YTbIJ16WxDbDKf9QX-6">
          <mxGeometry width="50" height="50" relative="1" as="geometry">
            <mxPoint x="729" y="400" as="sourcePoint" />
            <mxPoint x="700" y="450" as="targetPoint" />
          </mxGeometry>
        </mxCell>
        <mxCell id="Vo5YTbIJ16WxDbDKf9QX-43" value="" style="endArrow=none;html=1;rounded=0;entryX=0.5;entryY=0;entryDx=0;entryDy=0;" edge="1" parent="1" target="Vo5YTbIJ16WxDbDKf9QX-7">
          <mxGeometry width="50" height="50" relative="1" as="geometry">
            <mxPoint x="700" y="450" as="sourcePoint" />
            <mxPoint x="739.09" y="350" as="targetPoint" />
            <Array as="points">
              <mxPoint x="860" y="450" />
            </Array>
          </mxGeometry>
        </mxCell>
        <mxCell id="Vo5YTbIJ16WxDbDKf9QX-44" value="" style="endArrow=none;html=1;rounded=0;entryX=0.5;entryY=0;entryDx=0;entryDy=0;" edge="1" parent="1" target="Vo5YTbIJ16WxDbDKf9QX-8">
          <mxGeometry width="50" height="50" relative="1" as="geometry">
            <mxPoint x="860" y="450" as="sourcePoint" />
            <mxPoint x="749.09" y="360" as="targetPoint" />
            <Array as="points">
              <mxPoint x="1020" y="450" />
            </Array>
          </mxGeometry>
        </mxCell>
        <mxCell id="Vo5YTbIJ16WxDbDKf9QX-45" value="" style="endArrow=none;html=1;rounded=0;exitX=0.5;exitY=0;exitDx=0;exitDy=0;entryX=0.5;entryY=1;entryDx=0;entryDy=0;" edge="1" parent="1" source="Vo5YTbIJ16WxDbDKf9QX-2" target="Vo5YTbIJ16WxDbDKf9QX-1">
          <mxGeometry width="50" height="50" relative="1" as="geometry">
            <mxPoint x="1020" y="300" as="sourcePoint" />
            <mxPoint x="1070" y="250" as="targetPoint" />
            <Array as="points">
              <mxPoint x="698" y="200" />
              <mxPoint x="1100" y="200" />
            </Array>
          </mxGeometry>
        </mxCell>
      </root>
    </mxGraphModel>
  </diagram>
</mxfile>
